/vscmnt/brussel_pixiu_data/_data_brussel/112/vsc11236/PredSimResults/SUBJ04opt3D/worker_12.mot
version=1
nRows=11
nColumns=50
inDegrees=yes
endheader
                time	         pelvis_tilt	         pelvis_list	     pelvis_rotation	           pelvis_tx	           pelvis_ty	           pelvis_tz	       hip_flexion_r	     hip_adduction_r	      hip_rotation_r	        knee_angle_r	       ankle_angle_r	         mtp_angle_r	       hip_flexion_l	     hip_adduction_l	      hip_rotation_l	        knee_angle_l	       ankle_angle_l	         mtp_angle_l	    lumbar_extension	      lumbar_bending	     lumbar_rotation	 ercspn_r/activation	 intobl_r/activation	 extobl_r/activation	    abd_r/activation	    add_r/activation	hamstrings_r/activation	bifemsh_r/activation	glut_max_r/activation	iliopsoas_r/activation	rect_fem_r/activation	  vasti_r/activation	gastroc_r/activation	 soleus_r/activation	tib_ant_r/activation	 ercspn_l/activation	 intobl_l/activation	 extobl_l/activation	    abd_l/activation	    add_l/activation	hamstrings_l/activation	bifemsh_l/activation	glut_max_l/activation	iliopsoas_l/activation	rect_fem_l/activation	  vasti_l/activation	gastroc_l/activation	 soleus_l/activation	tib_ant_l/activation	
          3.00000003	         -5.57167855	         -6.00389524	         -7.38479925	          5.10000005	          0.84306450	         -0.00441996	        -12.59281131	          0.06987912	        -25.22827385	        -20.71436688	          6.32011162	         35.92350068	         45.90690026	         -7.60752533	          0.54044462	        -35.02528430	          8.69610032	          0.68848979	        -10.91370760	          8.72488251	         15.51592917	          0.23048935	          0.01000000	          0.00999999	          0.03049017	          0.04213988	          0.09932454	          0.00999999	          0.05418709	          0.00999999	          0.46125087	          0.09546883	          0.44648048	          0.11813331	          0.01112609	          0.05764203	          0.11999533	          0.01396245	          0.00999999	          0.14879325	          0.17959594	          0.16425069	          0.13388174	          0.07540311	          0.04800454	          0.09715782	          0.11753671	          0.07488792	          0.47416536	
          3.02000003	         -6.14739415	         -5.46138300	         -7.22050905	          5.14536325	          0.83949786	         -0.00497068	        -15.38709711	         -0.56881923	        -25.51303601	        -18.66391671	          1.03839769	         39.16466387	         44.71792356	         -6.37712417	          1.37897364	        -37.36015129	          8.61813684	          0.51848539	         -8.80579826	          7.41033416	         16.17380509	          0.19421050	          0.00999999	          0.00999999	          0.02286763	          0.03160491	          0.07449341	          0.01000000	          0.04064032	          0.01000000	          0.34593815	          0.07160162	          0.33486036	          0.08859999	          0.00999999	          0.04323153	          0.08999650	          0.01047183	          0.12578754	          0.11902213	          0.13658107	          0.12318801	          0.27428543	          0.05655233	          0.03600340	          0.23332208	          0.08815253	          0.05616594	          0.52799338	
          3.04000003	         -6.74873111	         -4.92103502	         -7.08122270	          5.19080541	          0.83747913	         -0.00582810	        -17.69138658	         -1.34640831	        -25.69515271	        -17.16456337	         -4.77754681	         40.87824293	         43.62006120	         -5.26339695	          1.93157897	        -39.93503543	          9.00632232	          0.46510201	         -6.63227867	          6.16721333	         16.76921345	          0.26431052	          0.00999999	          0.00999999	          0.01715072	          0.02370368	          0.05587007	          0.16525994	          0.03048024	          0.17778091	          0.35816919	          0.05370122	          0.25114527	          0.06644999	          0.00999999	          0.06282360	          0.06749737	          0.00999999	          0.29475873	          0.20239006	          0.10243580	          0.09239101	          0.27940744	          0.04241425	          0.02700255	          0.51260489	          0.06611440	          0.16460231	          0.39599503	
          3.06000003	         -7.38175289	         -4.44503613	         -6.89343682	          5.23470661	          0.83908268	         -0.00681240	        -18.96781779	         -2.32300727	        -25.97367437	        -17.01803469	        -10.50870621	         39.53735758	         42.20613527	         -4.41469965	          1.98129222	        -42.05427318	         11.45013989	          1.97555161	         -4.58383089	          5.05161724	         17.22305297	          0.30978380	          0.00999999	          0.00999999	          0.01286304	          0.01777776	          0.04190255	          0.12394495	          0.02286018	          0.16673509	          0.37297518	          0.04027591	          0.18835895	          0.04983749	          0.00999999	          0.04711774	          0.05062303	          0.00999999	          0.41222317	          0.20967548	          0.12514611	          0.06929326	          0.20955559	          0.03181069	          0.02025191	          0.71532185	          0.14302065	          0.32716458	          0.29699627	
          3.08000003	         -8.06619539	         -4.15137281	         -6.67346255	          5.27641110	          0.84566188	         -0.00784600	        -19.10270981	         -3.37813696	        -26.21540838	        -17.88962973	        -16.83378095	         35.61169257	         39.82025735	         -3.79231065	          2.00342035	        -41.99952995	         12.99175597	          4.67379235	         -2.72494228	          4.21812682	         17.52217116	          0.30328474	          0.00999999	          0.00999999	          0.00999999	          0.01333332	          0.03142692	          0.09295872	          0.01714513	          0.12505132	          0.40909426	          0.03989344	          0.14126921	          0.03737812	          0.00999999	          0.03533830	          0.03796727	          0.00999999	          0.40263822	          0.25933687	          0.12837248	          0.05196994	          0.23230131	          0.02385801	          0.01518894	          0.53649138	          0.22413010	          0.43127925	          0.22274720	
          3.10000003	         -8.76652868	         -4.07220697	         -6.47191897	          5.31623681	          0.85610627	         -0.00879195	        -18.52174046	         -4.35433697	        -26.33269661	        -18.92172644	        -22.86803759	         28.91930407	         36.85399327	         -3.41796100	          2.13715535	        -40.42421135	         13.15267408	          7.65490440	         -1.04021943	          3.71027975	         17.65359407	          0.35795380	          0.01000004	          0.00999999	          0.07393851	          0.00999999	          0.02357020	          0.06971904	          0.03160490	          0.09378849	          0.40713306	          0.08823268	          0.10595191	          0.02803359	          0.14227898	          0.02650373	          0.02847545	          0.00999999	          0.34394334	          0.20677434	          0.15060452	          0.03897746	          0.22658116	          0.01789351	          0.01139170	          0.40236854	          0.29235364	          0.47599485	          0.16706040	
          3.12000003	         -9.45748098	         -4.16983968	         -6.33912244	          5.35479000	          0.86852316	         -0.00942069	        -17.90039692	         -4.91897886	        -26.74354098	        -18.47954838	        -23.14450854	         22.36744529	         33.57545008	         -3.31515656	          2.26340592	        -37.90337617	         12.09904531	         10.85071942	          0.54456957	          3.49677382	         17.59861556	          0.26846535	          0.08212120	          0.02616362	          0.05545388	          0.00999999	          0.01767766	          0.05228928	          0.02370368	          0.07034137	          0.34698887	          0.07125214	          0.07946393	          0.02102519	          0.27177100	          0.01987779	          0.02135659	          0.00999999	          0.25795750	          0.15508075	          0.11625102	          0.02923309	          0.16993587	          0.01342013	          0.00999999	          0.30177640	          0.35956587	          0.46369151	          0.12529530	
          3.14000003	        -10.15336606	         -4.46630677	         -6.30311595	          5.39183982	          0.88193629	         -0.00992018	        -16.90116644	         -5.12071651	        -27.19807324	        -16.91734007	        -21.16703033	         17.33638782	         30.34834095	         -3.50825267	          2.24881678	        -35.00425124	          9.83541487	         14.35510351	          1.98007059	          3.63459996	         17.32059536	          0.20134902	          0.06159096	          0.08158956	          0.04159041	          0.04166203	          0.01325825	          0.03921696	          0.01777776	          0.05275603	          0.26024165	          0.07981940	          0.05959795	          0.01576889	          0.25376291	          0.01490835	          0.01601744	          0.00999999	          0.19346813	          0.11631056	          0.08718826	          0.02192482	          0.12745190	          0.01537227	          0.05801154	          0.22633230	          0.34908557	          0.34776863	          0.09397148	
          3.16000003	        -10.86876205	         -4.77757558	         -6.34798254	          5.42670570	          0.89549187	         -0.01048789	        -15.12564301	         -5.29905405	        -27.53617899	        -15.30753588	        -18.42308715	         13.44232575	         27.67456766	         -3.76387574	          2.07694000	        -32.50905122	          6.53320442	         17.93984023	          3.15130284	          3.89842060	         16.86324454	          0.15101176	          0.10332248	          0.53255113	          0.03119281	          0.03124653	          0.01000001	          0.02941272	          0.01333332	          0.03956702	          0.19518124	          0.08102712	          0.04469846	          0.01182667	          0.21970002	          0.01118126	          0.45731524	          0.00999999	          0.14510109	          0.08723292	          0.06539120	          0.04213988	          0.09558893	          0.57801669	          0.24979574	          0.16974922	          0.26181418	          0.26082647	          0.07047861	
          3.18000003	        -11.63665326	         -4.82498757	         -6.22907864	          5.45753683	          0.90769938	         -0.01160821	        -12.33107287	         -5.78632215	        -27.91271940	        -14.17492630	        -15.78152526	         10.43613169	         26.73460062	         -3.59946269	          2.42749146	        -32.28897606	          3.32020646	         19.71405296	          3.73094970	          3.85818236	         16.29568016	          0.11325882	          0.08028474	          0.59781949	          0.02339461	          0.02343490	          0.01777765	          0.02205954	          0.00999999	          0.02967527	          0.14638593	          0.12589908	          0.03352385	          0.00999999	          0.20907205	          0.01141554	          0.59832579	          0.28969840	          0.10882582	          0.14189823	          0.04904340	          0.03160491	          0.07169170	          0.81915002	          0.50305182	          0.12731192	          0.19636063	          0.19561985	          0.50613224	
          3.20000003	        -12.57593170	         -4.73250604	         -5.90064210	          5.48434657	          0.91656372	         -0.01314548	         -8.77397671	         -6.33688938	        -28.29690670	        -12.81250188	        -13.49835554	          8.07870025	         27.28296338	         -3.13796262	          3.52135903	        -33.75515497	          3.16429821	         16.41096181	          3.74475934	          3.58562893	         15.63816386	          0.08494412	          0.25177836	          0.44836462	          0.01754595	          0.06671913	          0.01333332	          0.01654466	          0.01777776	          0.02225645	          0.10978945	          0.16470117	          0.02514288	          0.00999999	          0.22560660	          0.01000000	          0.44874434	          0.21727380	          0.08161937	          0.22155538	          0.03678255	          0.02370368	          0.05376877	          0.63651003	          0.66563414	          0.21037815	          0.14727047	          0.14671489	          0.62974913	
